<svg width="512" height="512" viewBox="0 0 512 512" fill="none" xmlns="http://www.w3.org/2000/svg">
  <rect width="512" height="512" rx="120" fill="#6366f1"/>
  <path d="M256 128C185.3 128 128 185.3 128 256C128 326.7 185.3 384 256 384C284.5 384 310.8 374.8 332.6 359.4L356.1 386.9C328.6 409.8 294 424 256 424C163.2 424 88 348.8 88 256C88 163.2 163.2 88 256 88C348.8 88 424 163.2 424 256V266C424 288.1 406.1 306 384 306C361.9 306 344 288.1 344 266V256C344 207.4 304.6 168 256 168C207.4 168 168 207.4 168 256C168 304.6 207.4 344 256 344C279.6 344 301 334.7 316.3 319.6C323.5 334.1 338.4 344 356 344C382.5 344 404 322.5 404 296V256C404 174.3 337.7 108 256 108V128ZM256 208C282.5 208 304 229.5 304 256C304 282.5 282.5 304 256 304C229.5 304 208 282.5 208 256C208 229.5 229.5 208 256 208Z" fill="white"/>
</svg>